<?xml version="1.0" encoding="utf-8"?>
<!-- Generator: Adobe Illustrator 16.0.2, SVG Export Plug-In . SVG Version: 6.00 Build 0)  -->
<!DOCTYPE svg PUBLIC "-//W3C//DTD SVG 1.1//EN" "http://www.w3.org/Graphics/SVG/1.1/DTD/svg11.dtd">
<svg version="1.1" id="Layer_1" xmlns="http://www.w3.org/2000/svg" xmlns:xlink="http://www.w3.org/1999/xlink" x="0px" y="0px"
	 width="28px" height="28px" viewBox="0 0 28 28" enable-background="new 0 0 28 28" xml:space="preserve">
<circle id="circle3930-0-0-2" fill="#4E9108" cx="14" cy="14" r="14"/>
<g>
	<g>
		<path fill="#FFFFFF" d="M5.771,10.376c0.9,0.408,2.113,0.652,3.432,0.652c1.317,0,2.53-0.244,3.431-0.652
			c0.862-0.392,1.595-1.019,1.595-1.862c0-0.844-0.733-1.471-1.595-1.862C11.734,6.243,10.521,6,9.204,6
			C7.884,6,6.671,6.243,5.771,6.652C4.909,7.043,4.176,7.67,4.176,8.514C4.176,9.357,4.909,9.985,5.771,10.376z"/>
	</g>
	<g>
		<path fill="#FFFFFF" d="M14.153,10.324c-0.41,0.363-0.802,0.63-1.209,0.814c-1.034,0.47-2.351,0.728-3.76,0.728
			c-1.41,0-2.77-0.257-3.802-0.728c-0.409-0.184-0.905-0.452-1.272-0.814v0.705c0,0.841,0.767,1.471,1.629,1.861
			c0.899,0.408,2.13,0.653,3.445,0.653c1.32,0,2.504-0.244,3.403-0.653c0.864-0.39,1.565-1.021,1.565-1.861V10.324z"/>
	</g>
	<g>
		<path fill="#FFFFFF" d="M9.204,14.379c-1.41,0-2.779-0.257-3.813-0.727c-0.406-0.185-0.914-0.453-1.281-0.814v0.705
			c0,0.841,0.767,1.468,1.629,1.861c0.899,0.408,2.13,0.656,3.445,0.656c1.32,0,2.504-0.248,3.403-0.656
			c0.864-0.393,1.565-1.02,1.565-1.861v-0.705c-0.41,0.361-0.802,0.629-1.209,0.814C11.91,14.122,10.614,14.379,9.204,14.379z"/>
	</g>
	<g>
		<path fill="#FFFFFF" d="M23.568,9.493H22.38V6.706C22.38,6.318,22.101,6,21.767,6c-0.335,0-0.607,0.318-0.607,0.706v2.787h-1.802
			V6.706c0-0.388-0.278-0.706-0.61-0.706c-0.331,0-0.612,0.318-0.612,0.706v2.787h-1.109c-0.218,0-0.444,0.149-0.444,0.393v0.515
			c0,0.246,0.227,0.522,0.444,0.522h0.3h-0.054v1.017c0,1.893,0.657,2.818,2.251,3.052v0.103c0,0.05,0,0.097,0,0.148v2.184v2.859
			c-1.715,0.008-2.638,0.025-4.366,0.044c-1.495,0.019-2.937,0.031-5.182,0.033l0.019-1.826c1.006-0.076,1.894-0.299,2.609-0.62
			c0.863-0.389,1.571-1.019,1.571-1.856v-0.708c-0.408,0.36-0.813,0.631-1.223,0.813c-1.031,0.476-2.353,0.728-3.762,0.728
			c-1.409,0-2.762-0.252-3.794-0.728c-0.408-0.182-0.897-0.452-1.264-0.813v0.708c0,0.838,0.758,1.468,1.619,1.856
			c0.762,0.346,1.754,0.577,2.836,0.631l0.004,2.634C8.589,21.632,8.907,22,9.298,22c2.005,0,3.966-0.02,5.926-0.041
			c1.651-0.017,2.465-0.032,5.086-0.032c0.386,0,0.682-0.367,0.682-0.82v-3.681v-2.184c0-0.057,0-0.109,0-0.166v-0.104
			c1.636-0.185,2.247-1.308,2.247-3.142v-0.908h0.096h0.234c0.212,0,0.321-0.274,0.321-0.522V9.886
			C23.89,9.642,23.786,9.493,23.568,9.493z M21.894,12.47l-3.231-0.005v-1.133h3.231V12.47z"/>
	</g>
</g>
</svg>
